<?xml version="1.0" encoding="utf-8"?>
<!-- Generator: Adobe Illustrator 19.0.0, SVG Export Plug-In . SVG Version: 6.00 Build 0)  -->
<svg version="1.1" id="layer" xmlns="http://www.w3.org/2000/svg" xmlns:xlink="http://www.w3.org/1999/xlink" x="0px" y="0px"
	 viewBox="-153 -46 652 652" style="enable-background:new -153 -46 652 652;" xml:space="preserve">
<style type="text/css">
	.st0{fill:#6EBB49;}
	.st1{fill:#00AE9C;}
	.st2{fill:#B8D335;}
	.st3{fill:#003B43;}
</style>
<path class="st0" d="M-118.8,213.4c-1.2,0.1-2.4,0.4-3.5,1.1c-2.6,1.5-4.1,4.3-4.1,7.1c0,1.2,0.3,2.5,0.9,3.7l40.3,70.1l13.1-22.6
	l21.3-36.8l-13.1-22.6H-118.8z"/>
<g>
	<path class="st0" d="M-118.8,213.4c-1.2,0.1-2.4,0.4-3.5,1.1c-2.6,1.5-4.1,4.3-4.1,7.1c0,1.2,0.3,2.5,0.9,3.7l40.3,70.1l13.1-22.6
		l21.3-36.8l-13.1-22.6H-118.8z"/>
</g>
<path class="st1" d="M-63.8,213.4l34.3,59.3h24.1h1.9L24,225.1c0.5-1.1,0.8-2.2,0.8-3.5c0-4.4-3.4-7.9-7.7-8.2H-63.8z"/>
<path class="st2" d="M-5.3,272.7H-72l-13.1,22.6l27.6,47.6c0.6,1,1.6,1.8,2.6,2.5c1.3,0.7,2.7,1.1,4.1,1.1c2.7,0,5.3-1.4,6.9-3.7
	l40.5-70.1H-5.3z"/>
<path class="st3" d="M257.9,234.7h-0.5c-27,0.3-43.7,20.8-43.7,46.5c0,24.7,15.2,45.4,42.8,45.4h1c26.9-0.3,43.7-18.5,43.7-46.9
	C301.1,256,286.6,234.7,257.9,234.7 M257.7,307.8l-0.3-0.1c-11.5,0-18.7-11.1-18.5-27c0-15.5,7-27.1,18.5-27.1
	c11.6,0,18.5,11.6,18.5,27C275.9,296.7,269.2,307.8,257.7,307.8 M456.3,277.1v-0.2c10.5-4,14.5-11.2,14.5-18.6c0-8.7-5-15.1-12-18.4
	c-5.9-2.9-12.3-4-21.8-4.3c-1.7-0.1-3.5-0.1-5.5-0.1c-10.9,0-22.7,0.9-28.1,2v87.2c4.8,0.9,12.7,1.6,23.5,1.6
	c3.6,0,6.9-0.1,10.1-0.3c13-0.9,21.3-3.6,26.7-7.6c6-4.5,10-11.1,10-19.5C473.7,288.2,467.1,280.1,456.3,277.1 M427,253.2
	c1.6-0.3,3.9-0.5,7.8-0.5c0.7,0,1.5,0.1,2.1,0.1c6.6,0.5,9.9,3.7,9.9,8.3c0,4.6-3.2,7.9-9.9,8.9c-1.6,0.2-3.3,0.4-5.2,0.4H427V253.2
	z M437,308.6c-1,0.1-2,0.2-3,0.2c-3,0-5.2,0-6.9-0.3v-21.2h5.7c1.5,0,2.9,0,4.2,0.2c6.8,0.9,11.6,3.9,11.6,10.2
	C448.6,304.6,443.5,307.9,437,308.6 M396.2,279.8c0-23.8-14.5-45.1-43.2-45.1h-0.5c-27,0.3-43.7,20.8-43.7,46.5
	c0,24.7,15.2,45.4,42.8,45.4h0.9C379.4,326.3,396.2,308.1,396.2,279.8 M352.8,307.8l-0.3-0.1c-11.5,0-18.6-11.1-18.5-27
	c0-15.5,7-27.1,18.5-27.1c11.6,0,18.5,11.6,18.5,27C371,296.7,364.3,307.8,352.8,307.8 M206.8,304.2c-3.7,1.5-10.2,2.5-15.9,2.5
	c-16.4,0-26-10.1-26-26.1c0-18.1,11.8-26.2,25.5-26.2c7.1,0,14.5,2.1,16.5,3.2c4.2-9.6,3.2-22.7-17.6-22.7
	c-26.6,0-49.6,16-49.6,47.2c0,23.7,14.7,44.4,48,44.4c10.6,0,19-2,22.3-3.7L206.8,304.2z M104.6,236.2v89h23.9v-74.4
	C128.4,239.5,122.4,236.2,104.6,236.2 M69.8,271.3c-11.3-4.2-16-5.9-16-10.4c0-4,4-6.6,11.3-6.6c8.9,0,17.6,3.3,19.3,4.2
	c3.4-9.1,5.3-23.7-19-23.7c-22.5,0-35.8,12.2-35.8,27.9c0,13.2,10.1,21.4,25.1,26.8c10.1,3.4,14,5.8,14,10.2c0,4.5-4,7.2-12.2,7.2
	c-8.9,0-17.6-2.7-23.1-5.6l-4.5,19.7c5,2.7,15.4,5.4,26.1,5.4c26,0,37.9-13.1,37.9-28.4C92.9,285.7,85.8,277.2,69.8,271.3"/>
<g>
	<path class="st1" d="M23.9,225c0.5-1.1,0.8-2.3,0.8-3.6c0-3-1.7-5.7-4.1-7.1c-1.1-0.6-2.3-1-3.6-1l-80.9,0.2l13.1,22.6l21.3,36.7
		l26.1-0.2L23.9,225z"/>
</g>
<g>
	<path class="st2" d="M-57.6,342.9c0.7,1,1.6,1.8,2.7,2.5c2.6,1.5,5.7,1.4,8.2,0c1.1-0.6,2-1.5,2.7-2.6l40.5-70h-26.1l-42.5-0.1
		l-13,22.6L-57.6,342.9z"/>
</g>
</svg>
